<?xml version="1.0" encoding="utf-8"?>
<!-- Generator: Adobe Illustrator 19.1.0, SVG Export Plug-In . SVG Version: 6.00 Build 0)  -->
<svg version="1.1" id="Layer_1" xmlns="http://www.w3.org/2000/svg" xmlns:xlink="http://www.w3.org/1999/xlink" x="0px" y="0px"
	 viewBox="0 0 47 47" style="enable-background:new 0 0 47 47;" xml:space="preserve">
<style type="text/css">
	.st0{fill:#DDDDDD;}
</style>
<path id="Facebook_3_" class="st0" d="M20.7,15.6c0,0.6,0,3.3,0,3.3h-2.4v4h2.4v12h5v-12H29c0,0,0.3-1.9,0.5-4.1c-0.4,0-3.8,0-3.8,0
	s0-2.4,0-2.8c0-0.4,0.5-1,1.1-1c0.5,0,1.7,0,2.7,0c0-0.6,0-2.5,0-4.2c-1.4,0-3,0-3.7,0C20.6,10.9,20.7,15,20.7,15.6z"/>
</svg>
