<?xml version="1.0" encoding="utf-8"?>
<!-- Generator: Adobe Illustrator 19.1.0, SVG Export Plug-In . SVG Version: 6.00 Build 0)  -->
<svg version="1.1" id="Layer_1" xmlns="http://www.w3.org/2000/svg" xmlns:xlink="http://www.w3.org/1999/xlink" x="0px" y="0px"
	 viewBox="0 0 47 47" style="enable-background:new 0 0 47 47;" xml:space="preserve">
<style type="text/css">
	.st0{fill:#DDDDDD;}
</style>
<path id="Google_3_" class="st0" d="M31.7,11.4h-6.5c-1.7,0-3.8,0.3-5.6,1.7c-1.4,1.2-2,2.8-2,4.2c0,2.5,1.9,4.9,5.2,4.9
	c0.3,0,0.7,0,1-0.1c-0.2,0.4-0.3,0.7-0.3,1.2c0,1,0.5,1.6,0.9,2.1c-1.4,0.1-4.1,0.3-6,1.4c-1.9,1.1-2.4,2.7-2.4,3.8
	c0,2.3,2.2,4.5,6.8,4.5c5.4,0,8.3-3,8.3-6c0-2.2-1.3-3.2-2.6-4.4l-1.1-0.9c-0.3-0.3-0.8-0.7-0.8-1.4s0.5-1.1,0.9-1.5
	c1.3-1,2.6-2.1,2.6-4.5c0-2.4-1.5-3.7-2.2-4.3h2L31.7,11.4z M28.9,30.7c0,2-1.6,3.4-4.6,3.4c-3.4,0-5.5-1.6-5.5-3.8
	c0-2.2,2-3,2.7-3.2c1.3-0.4,3-0.5,3.3-0.5c0.3,0,0.5,0,0.7,0C27.9,28.2,28.9,29.1,28.9,30.7z M26.4,20.5c-0.5,0.5-1.4,0.9-2.1,0.9
	c-2.7,0-3.9-3.5-3.9-5.6c0-0.8,0.2-1.7,0.7-2.3c0.5-0.6,1.4-1,2.2-1c2.6,0,4,3.5,4,5.8C27.2,18.8,27.1,19.8,26.4,20.5z"/>
</svg>
