<?xml version="1.0" encoding="UTF-8"?>
<svg width="32px" height="32px" viewBox="0 0 32 32" version="1.1" xmlns="http://www.w3.org/2000/svg" xmlns:xlink="http://www.w3.org/1999/xlink">
    <!-- Generator: Sketch 50.2 (55047) - http://www.bohemiancoding.com/sketch -->
    <title>entrance</title>
    <desc>Created with Sketch.</desc>
    <defs></defs>
    <g id="Page-1" stroke="none" stroke-width="1" fill="none" fill-rule="evenodd">
        <g id="Desktop" transform="translate(-211.000000, -195.000000)">
            <g id="Group-4-Copy" transform="translate(50.000000, 195.000000)">
                <g id="entrance" transform="translate(161.000000, 0.000000)">
                    <path d="M27.0712836,1 L4.78620896,1 C3.25373134,1 2,2.25373134 2,3.78537313 L2,26.0729552 C2,27.604597 3.25373134,28.8579104 4.78620896,28.8579104 L27.0717015,28.8579104 C28.6041791,28.8579104 29.8574925,27.604597 29.8574925,26.0729552 L29.8574925,3.78537313 C29.8570746,2.25331343 28.6037612,1 27.0712836,1 Z" id="Path" stroke="#000000" fill="#000000"></path>
                    <path d="M11.3172927,5.00099504 C10.9424641,5.04028194 10.6584565,5.35731358 10.6604721,5.73419015 L10.6604721,22.1088811 C10.6605126,22.5137968 10.9887515,22.8420357 11.3936672,22.8420762 L13.3488542,22.8420762 L13.3488542,26.2636534 C13.3478233,26.5094612 13.4700256,26.7394338 13.6743153,26.8761389 C13.878605,27.0128441 14.1378022,27.0380937 14.3646349,26.9433864 L24.1405698,22.872626 C24.4145384,22.7581749 24.5924471,22.4898041 24.5911793,22.192893 L24.5911793,5.73419015 C24.5911388,5.32927444 24.2628999,5.00103552 23.8579842,5.00099504 L11.3936672,5.00099504 C11.3682264,4.99966832 11.3427336,4.99966832 11.3172927,5.00099504 Z M12.1268624,6.46738527 L20.4287695,6.46738527 L13.7841888,9.46126532 C13.5187614,9.57929114 13.3480299,9.8428765 13.3488542,10.1333608 L13.3488542,21.3756859 L12.1268624,21.3756859 L12.1268624,6.46738527 Z M23.1247891,6.86453262 L23.1247891,21.7117337 L14.8152444,25.1638607 L14.8152444,10.6068827 L23.1247891,6.86453262 Z M6.70427348,10.8589185 C6.40696084,10.8755232 6.14921332,11.0702794 6.05203787,11.3517531 C5.95486242,11.6332268 6.03755825,11.9455169 6.26130143,12.14201 L7.28471961,13.0661413 L5.77250469,13.0661413 C5.74706381,13.0648146 5.72157108,13.0648146 5.6961302,13.0661413 C5.43415211,13.0797404 5.19933502,13.2320857 5.08015017,13.4657787 C4.96096532,13.6994718 4.9755241,13.9790003 5.11834124,14.1990474 C5.26115839,14.4190945 5.51053134,14.5462216 5.77250469,14.5325315 L7.28471961,14.5325315 L6.26130143,15.4566629 C6.03794832,15.6228915 5.92800587,15.9012748 5.97750405,16.1752611 C6.02700223,16.4492474 6.2274009,16.6715647 6.49479849,16.7491346 C6.76219608,16.8267045 7.05045732,16.7461437 7.23889492,16.5411807 L9.68287864,14.3415953 C9.8355365,14.2026369 9.92255018,14.0057677 9.92255018,13.7993364 C9.92255018,13.5929051 9.8355365,13.396036 9.68287864,13.2570775 L7.23889492,11.0574922 C7.09478368,10.9218722 6.90197483,10.8502575 6.70427348,10.8589185 Z M17.9695109,14.7769299 C17.8773581,14.780307 17.7866692,14.8010359 17.7022002,14.8380295 L15.9914116,15.5712246 C15.7229958,15.6869429 15.5489429,15.9510232 15.5484396,16.2433201 L15.5484396,17.465312 C15.5447001,17.7297285 15.6836226,17.9756755 15.9120111,18.108975 C16.1403996,18.2422745 16.4228698,18.2422745 16.6512582,18.108975 C16.8796467,17.9756755 17.0185693,17.7297285 17.0148298,17.465312 L17.0148298,16.7244794 L18.2826463,16.1822205 C18.6046374,16.0420253 18.7820195,15.6932153 18.7056389,15.3504341 C18.6292583,15.0076529 18.3205628,14.7671537 17.9695109,14.7769299 Z" id="Shape" fill="#FFFFFF" fill-rule="nonzero"></path>
                </g>
            </g>
        </g>
    </g>
</svg>