<?xml version="1.0" encoding="UTF-8"?>
<svg width="32px" height="32px" viewBox="0 0 32 32" version="1.1" xmlns="http://www.w3.org/2000/svg" xmlns:xlink="http://www.w3.org/1999/xlink">
    <!-- Generator: Sketch 50.2 (55047) - http://www.bohemiancoding.com/sketch -->
    <title>fountain</title>
    <desc>Created with Sketch.</desc>
    <defs></defs>
    <g id="Page-1" stroke="none" stroke-width="1" fill="none" fill-rule="evenodd">
        <g id="Desktop" transform="translate(-131.000000, -195.000000)">
            <g id="Group-4-Copy" transform="translate(50.000000, 195.000000)">
                <g id="fountain" transform="translate(81.000000, 0.000000)">
                    <path d="M27.0712836,1 L4.78620896,1 C3.25373134,1 2,2.25373134 2,3.78537313 L2,26.0729552 C2,27.604597 3.25373134,28.8579104 4.78620896,28.8579104 L27.0717015,28.8579104 C28.6041791,28.8579104 29.8574925,27.604597 29.8574925,26.0729552 L29.8574925,3.78537313 C29.8570746,2.25331343 28.6037612,1 27.0712836,1 Z" id="Path" stroke="#000000" fill="#000000"></path>
                    <g id="Group-2" transform="translate(6.000000, 3.000000)" fill="#FFFFFF" fill-rule="nonzero">
                        <path d="M12.49776,4.87392 C13.83936,4.87392 14.9292,3.78408 14.93496,2.43744 C14.9292,1.09512 13.83936,0.00504 12.49776,0 C11.15016,0.00504 10.06032,1.09512 10.06104,2.43744 C10.06032,3.78408 11.15016,4.87392 12.49776,4.87392 Z" id="Shape"></path>
                        <path d="M6.9072,2.9196 C8.28624,2.20872 10.21392,3.51264 10.23024,4.93944 L10.23024,9.57936 L12.43296,12.01632 C13.44528,13.15056 11.84304,14.71176 10.72536,13.57992 L8.23656,10.83 C8.076,10.67712 7.96008,10.4952 7.96272,10.07424 L7.96272,7.85832 L3.6096,10.20408 L3.6096,21.99888 C3.6108,24.66288 0.00264,24.6624 0,22.02456 L0,8.04072 C0.00264,7.26168 0.31128,6.50352 1.08144,6.06 L6.9072,2.9196 Z" id="Shape"></path>
                        <path d="M15.9384,14.88288 L19.77024,14.88288 L19.77024,7.9104 L12.05496,7.8972 C11.06928,7.89696 10.69848,9.01488 11.3124,9.7224 L15.9384,14.88288 Z" id="Shape"></path>
                        <path d="M13.72272,7.58496 C13.88472,7.58328 14.01792,7.44984 14.02248,7.2852 C14.01792,7.12056 13.88472,6.98736 13.72272,6.9852 C13.55616,6.9876 13.42296,7.12056 13.42296,7.2852 C13.42296,7.44984 13.55592,7.58328 13.72272,7.58496 Z" id="Shape"></path>
                        <path d="M14.51784,7.6368 C14.682,7.63488 14.81496,7.50168 14.8176,7.33752 C14.81496,7.17312 14.682,7.03968 14.51784,7.03752 C14.35296,7.03992 14.21976,7.17336 14.21784,7.33752 C14.21976,7.50168 14.3532,7.63488 14.51784,7.6368 Z" id="Shape"></path>
                        <path d="M14.56992,6.7512 C14.73312,6.75504 14.86608,6.6216 14.86968,6.46392 C14.86608,6.29328 14.73312,6.16056 14.56992,6.16392 C14.40456,6.16032 14.27136,6.29328 14.27016,6.46392 C14.27136,6.6216 14.40456,6.75504 14.56992,6.7512 Z" id="Shape"></path>
                        <path d="M13.77504,6.6984 C13.9392,6.70032 14.07216,6.56664 14.07504,6.39888 C14.07216,6.23808 13.9392,6.10488 13.77504,6.09888 C13.6104,6.10488 13.4772,6.23808 13.47552,6.39888 C13.4772,6.56664 13.61064,6.70032 13.77504,6.6984 Z" id="Shape"></path>
                        <path d="M14.03568,5.8908 C14.20488,5.88456 14.34504,5.74464 14.34864,5.57784 C14.34504,5.39952 14.20488,5.25936 14.03568,5.26512 C13.86,5.25936 13.72032,5.39952 13.72248,5.57784 C13.72032,5.74464 13.86,5.88456 14.03568,5.8908 Z" id="Shape"></path>
                        <path d="M15.00024,6.04728 C15.17376,6.04056 15.31392,5.90088 15.31296,5.73384 C15.31392,5.55552 15.17376,5.41536 15.00024,5.42184 C14.82864,5.4156 14.68872,5.55552 14.68752,5.73384 C14.68872,5.90088 14.82864,6.04056 15.00024,6.04728 Z" id="Shape"></path>
                        <path d="M14.66184,5.23872 C14.83824,5.23512 14.98536,5.08872 14.98728,4.91352 C14.98512,4.72608 14.83824,4.57896 14.66184,4.57416 C14.47584,4.57896 14.3292,4.72608 14.33568,4.91352 C14.3292,5.08896 14.4756,5.23512 14.66184,5.23872 Z" id="Shape"></path>
                        <path d="M15.78168,5.76024 C15.96024,5.75664 16.10664,5.60952 16.1076,5.43432 C16.10664,5.24688 15.96024,5.10024 15.78168,5.09592 C15.5976,5.10048 15.45048,5.24688 15.45624,5.43432 C15.45048,5.60952 15.5976,5.75688 15.78168,5.76024 Z" id="Shape"></path>
                        <path d="M15.41712,4.9524 C15.60288,4.94832 15.75,4.80192 15.75648,4.62624 C15.75,4.43952 15.60288,4.29216 15.41712,4.28784 C15.24096,4.2924 15.09312,4.43952 15.09144,4.62624 C15.09336,4.80192 15.24096,4.94856 15.41712,4.9524 Z" id="Shape"></path>
                        <path d="M16.30344,4.9524 C16.50648,4.95 16.66848,4.78752 16.66848,4.58736 C16.66848,4.38864 16.50648,4.2264 16.30344,4.22232 C16.10688,4.22664 15.94488,4.38864 15.9384,4.58736 C15.94488,4.78752 16.10664,4.95 16.30344,4.9524 Z" id="Shape"></path>
                        <path d="M16.59,6.07344 C16.78656,6.07056 16.94856,5.90832 16.95456,5.70864 C16.9488,5.5092 16.7868,5.34696 16.59,5.3436 C16.38696,5.3472 16.22544,5.5092 16.22544,5.70864 C16.22544,5.90832 16.38696,6.07032 16.59,6.07344 Z" id="Shape"></path>
                        <path d="M17.13696,5.38272 C17.35032,5.37792 17.52024,5.20824 17.51544,5.00424 C17.52024,4.78896 17.35032,4.61904 17.13696,4.61376 C16.9308,4.61904 16.76064,4.78896 16.75968,5.00424 C16.76064,5.20824 16.9308,5.37792 17.13696,5.38272 Z" id="Shape"></path>
                        <path d="M17.86704,6.11232 C18.08664,6.11376 18.2652,5.9352 18.27144,5.72112 C18.26544,5.4948 18.08664,5.31672 17.86704,5.31768 C17.646,5.31672 17.46768,5.4948 17.46312,5.72112 C17.46768,5.9352 17.646,6.11376 17.86704,6.11232 Z" id="Shape"></path>
                        <path d="M17.17632,6.81576 C17.39832,6.8172 17.57616,6.63912 17.58096,6.42504 C17.57616,6.19896 17.39832,6.01968 17.17632,6.02112 C16.95744,6.01968 16.77888,6.19896 16.78608,6.42504 C16.77888,6.63912 16.95744,6.8172 17.17632,6.81576 Z" id="Shape"></path>
                    </g>
                </g>
            </g>
        </g>
    </g>
</svg>