<?xml version="1.0" encoding="UTF-8"?>
<svg width="32px" height="32px" viewBox="0 0 32 32" version="1.1" xmlns="http://www.w3.org/2000/svg" xmlns:xlink="http://www.w3.org/1999/xlink">
    <!-- Generator: Sketch 50.2 (55047) - http://www.bohemiancoding.com/sketch -->
    <title>lockers</title>
    <desc>Created with Sketch.</desc>
    <defs></defs>
    <g id="Page-1" stroke="none" stroke-width="1" fill="none" fill-rule="evenodd">
        <g id="Desktop" transform="translate(-171.000000, -195.000000)">
            <g id="Group-4-Copy" transform="translate(50.000000, 195.000000)">
                <g id="lockers" transform="translate(121.000000, 0.000000)">
                    <path d="M27.0712836,1 L4.78620896,1 C3.25373134,1 2,2.25373134 2,3.78537313 L2,26.0729552 C2,27.604597 3.25373134,28.8579104 4.78620896,28.8579104 L27.0717015,28.8579104 C28.6041791,28.8579104 29.8574925,27.604597 29.8574925,26.0729552 L29.8574925,3.78537313 C29.8570746,2.25331343 28.6037612,1 27.0712836,1 Z" id="Path" stroke="#000000" fill="#000000"></path>
                    <path d="M6.45312953,25.9994505 C6.19545661,25.9751661 5.99889516,25.7582815 6.00000467,25.4994756 L6.00000467,4.49999984 C6.00002538,4.22387101 6.22386878,4.00002761 6.50000451,4 L24.4999987,4 C24.7761345,4.00002761 24.9999779,4.22387101 24.9999986,4.49999984 L24.9999986,25.4994756 C24.9999641,25.7755947 24.7761247,25.9994228 24.4999987,25.9994505 L6.50000451,25.9994505 C6.48438811,26.0001832 6.46874593,26.0001832 6.45312953,25.9994505 Z M7.00000435,24.9994758 L12.0000028,24.9994758 L12.0000028,4.99997468 L7.00000435,4.99997468 L7.00000435,24.9994758 Z M13.0000024,24.9994758 L18.0000008,24.9994758 L18.0000008,4.99997468 L13.0000024,4.99997468 L13.0000024,24.9994758 Z M19.0000005,24.9994758 L23.9999989,24.9994758 L23.9999989,4.99997468 L19.0000005,4.99997468 L19.0000005,24.9994758 Z M8.20312897,23.9838761 C8.024457,23.9755562 7.86380275,23.8725313 7.78170482,23.7136239 C7.6996069,23.5547165 7.70854327,23.3640787 7.80514648,23.2135477 C7.9017497,23.0630167 8.07133714,22.9754715 8.25000395,22.9839014 L10.7500032,22.9839014 C10.9303211,22.9813513 11.0980438,23.0760867 11.1889469,23.2318315 C11.2798501,23.3875764 11.2798501,23.5802011 11.1889469,23.735946 C11.0980438,23.8916908 10.9303211,23.9864262 10.7500032,23.9838761 L8.25000395,23.9838761 C8.23438755,23.9846088 8.21874537,23.9846088 8.20312897,23.9838761 Z M14.203127,23.9838761 C14.0244551,23.9755562 13.8638008,23.8725313 13.7817029,23.7136239 C13.699605,23.5547165 13.7085413,23.3640787 13.8051446,23.2135477 C13.9017478,23.0630167 14.0713352,22.9754715 14.250002,22.9839014 L16.7500012,22.9839014 C16.9303192,22.9813513 17.0980419,23.0760867 17.188945,23.2318315 C17.2798482,23.3875764 17.2798482,23.5802011 17.188945,23.735946 C17.0980419,23.8916908 16.9303192,23.9864262 16.7500012,23.9838761 L14.250002,23.9838761 C14.2343856,23.9846088 14.2187434,23.9846088 14.203127,23.9838761 Z M20.2031251,23.9838761 C20.0244532,23.9755562 19.8637989,23.8725313 19.781701,23.7136239 C19.6996031,23.5547165 19.7085394,23.3640787 19.8051426,23.2135477 C19.9017459,23.0630167 20.0713333,22.9754715 20.2500001,22.9839014 L22.7499993,22.9839014 C22.9303172,22.9813513 23.0980399,23.0760867 23.1889431,23.2318315 C23.2798463,23.3875764 23.2798463,23.5802011 23.1889431,23.735946 C23.0980399,23.8916908 22.9303172,23.9864262 22.7499993,23.9838761 L20.2500001,23.9838761 C20.2343837,23.9846088 20.2187415,23.9846088 20.2031251,23.9838761 Z M8.20312897,22.4839266 C8.024457,22.4756066 7.86380275,22.3725818 7.78170482,22.2136744 C7.6996069,22.054767 7.70854327,21.8641292 7.80514648,21.7135982 C7.9017497,21.5630672 8.07133714,21.475522 8.25000395,21.4839519 L10.7500032,21.4839519 C10.9303211,21.4814018 11.0980438,21.5761372 11.1889469,21.731882 C11.2798501,21.8876269 11.2798501,22.0802516 11.1889469,22.2359965 C11.0980438,22.3917413 10.9303211,22.4864767 10.7500032,22.4839266 L8.25000395,22.4839266 C8.23438755,22.4846593 8.21874537,22.4846593 8.20312897,22.4839266 Z M14.203127,22.4839266 C14.0244551,22.4756066 13.8638008,22.3725818 13.7817029,22.2136744 C13.699605,22.054767 13.7085413,21.8641292 13.8051446,21.7135982 C13.9017478,21.5630672 14.0713352,21.475522 14.250002,21.4839519 L16.7500012,21.4839519 C16.9303192,21.4814018 17.0980419,21.5761372 17.188945,21.731882 C17.2798482,21.8876269 17.2798482,22.0802516 17.188945,22.2359965 C17.0980419,22.3917413 16.9303192,22.4864767 16.7500012,22.4839266 L14.250002,22.4839266 C14.2343856,22.4846593 14.2187434,22.4846593 14.203127,22.4839266 Z M20.2031251,22.4839266 C20.0244532,22.4756066 19.8637989,22.3725818 19.781701,22.2136744 C19.6996031,22.054767 19.7085394,21.8641292 19.8051426,21.7135982 C19.9017459,21.5630672 20.0713333,21.475522 20.2500001,21.4839519 L22.7499993,21.4839519 C22.9303172,21.4814018 23.0980399,21.5761372 23.1889431,21.731882 C23.2798463,21.8876269 23.2798463,22.0802516 23.1889431,22.2359965 C23.0980399,22.3917413 22.9303172,22.4864767 22.7499993,22.4839266 L20.2500001,22.4839266 C20.2343837,22.4846593 20.2187415,22.4846593 20.2031251,22.4839266 Z M8.20312897,20.9839521 C8.024457,20.9756321 7.86380275,20.8726073 7.78170482,20.7136999 C7.6996069,20.5547924 7.70854327,20.3641546 7.80514648,20.2136236 C7.9017497,20.0630926 8.07133714,19.9755475 8.25000395,19.9839774 L10.7500032,19.9839774 C10.9303211,19.9814273 11.0980438,20.0761627 11.1889469,20.2319075 C11.2798501,20.3876523 11.2798501,20.5802771 11.1889469,20.7360219 C11.0980438,20.8917668 10.9303211,20.9865022 10.7500032,20.9839521 L8.25000395,20.9839521 C8.23438755,20.9846848 8.21874537,20.9846848 8.20312897,20.9839521 Z M14.203127,20.9839521 C14.0244551,20.9756321 13.8638008,20.8726073 13.7817029,20.7136999 C13.699605,20.5547924 13.7085413,20.3641546 13.8051446,20.2136236 C13.9017478,20.0630926 14.0713352,19.9755475 14.250002,19.9839774 L16.7500012,19.9839774 C16.9303192,19.9814273 17.0980419,20.0761627 17.188945,20.2319075 C17.2798482,20.3876523 17.2798482,20.5802771 17.188945,20.7360219 C17.0980419,20.8917668 16.9303192,20.9865022 16.7500012,20.9839521 L14.250002,20.9839521 C14.2343856,20.9846848 14.2187434,20.9846848 14.203127,20.9839521 Z M20.2031251,20.9839521 C20.0244532,20.9756321 19.8637989,20.8726073 19.781701,20.7136999 C19.6996031,20.5547924 19.7085394,20.3641546 19.8051426,20.2136236 C19.9017459,20.0630926 20.0713333,19.9755475 20.2500001,19.9839774 L22.7499993,19.9839774 C22.9303172,19.9814273 23.0980399,20.0761627 23.1889431,20.2319075 C23.2798463,20.3876523 23.2798463,20.5802771 23.1889431,20.7360219 C23.0980399,20.8917668 22.9303172,20.9865022 22.7499993,20.9839521 L20.2500001,20.9839521 C20.2343837,20.9846848 20.2187415,20.9846848 20.2031251,20.9839521 Z M8.13281649,15.6247038 C7.7876391,15.6247038 7.50781669,15.3449039 7.50781669,14.999729 C7.50781669,14.6545541 7.7876391,14.3747417 8.13281649,14.3747417 C8.47799388,14.3747417 8.75781629,14.6545541 8.75781629,14.999729 C8.75781629,15.3449039 8.47799388,15.6247038 8.13281649,15.6247038 Z M14.1328146,15.6247038 C13.7876372,15.6247038 13.5078148,15.3449039 13.5078148,14.999729 C13.5078148,14.6545541 13.7876372,14.3747417 14.1328146,14.3747417 C14.477992,14.3747417 14.7578144,14.6545541 14.7578144,14.999729 C14.7578144,15.3449039 14.477992,15.6247038 14.1328146,15.6247038 Z M20.1328126,15.6247038 C19.7876353,15.6247038 19.5078128,15.3449039 19.5078128,14.999729 C19.5078128,14.6545541 19.7876353,14.3747417 20.1328126,14.3747417 C20.47799,14.3747417 20.7578124,14.6545541 20.7578124,14.999729 C20.7578124,15.3449039 20.47799,15.6247038 20.1328126,15.6247038 Z M8.20312897,10.0154731 C8.024457,10.0071531 7.86380275,9.90412827 7.78170482,9.74522087 C7.6996069,9.58631346 7.70854327,9.39567566 7.80514648,9.24514466 C7.9017497,9.09461366 8.07133714,9.00706849 8.25000395,9.01549839 L10.7500032,9.01549839 C10.9303211,9.01294828 11.0980438,9.10768367 11.1889469,9.26342851 C11.2798501,9.41917336 11.2798501,9.61179811 11.1889469,9.76754295 C11.0980438,9.9232878 10.9303211,10.0180232 10.7500032,10.0154731 L8.25000395,10.0154731 C8.23438755,10.0162058 8.21874537,10.0162058 8.20312897,10.0154731 Z M14.203127,10.0154731 C14.0244551,10.0071531 13.8638008,9.90412827 13.7817029,9.74522087 C13.699605,9.58631346 13.7085413,9.39567566 13.8051446,9.24514466 C13.9017478,9.09461366 14.0713352,9.00706849 14.250002,9.01549839 L16.7500012,9.01549839 C16.9303192,9.01294828 17.0980419,9.10768367 17.188945,9.26342851 C17.2798482,9.41917336 17.2798482,9.61179811 17.188945,9.76754295 C17.0980419,9.9232878 16.9303192,10.0180232 16.7500012,10.0154731 L14.250002,10.0154731 C14.2343856,10.0162058 14.2187434,10.0162058 14.203127,10.0154731 Z M20.2031251,10.0154731 C20.0244532,10.0071531 19.8637989,9.90412827 19.781701,9.74522087 C19.6996031,9.58631346 19.7085394,9.39567566 19.8051426,9.24514466 C19.9017459,9.09461366 20.0713333,9.00706849 20.2500001,9.01549839 L22.7499993,9.01549839 C22.9303172,9.01294828 23.0980399,9.10768367 23.1889431,9.26342851 C23.2798463,9.41917336 23.2798463,9.61179811 23.1889431,9.76754295 C23.0980399,9.9232878 22.9303172,10.0180232 22.7499993,10.0154731 L20.2500001,10.0154731 C20.2343837,10.0162058 20.2187415,10.0162058 20.2031251,10.0154731 Z M8.20312897,8.51552355 C8.024457,8.50720362 7.86380275,8.40417875 7.78170482,8.24527135 C7.6996069,8.08636394 7.70854327,7.89572614 7.80514648,7.74519514 C7.9017497,7.59466414 8.07133714,7.50711897 8.25000395,7.51554887 L10.7500032,7.51554887 C10.9303211,7.51299876 11.0980438,7.60773415 11.1889469,7.76347899 C11.2798501,7.91922384 11.2798501,8.11184859 11.1889469,8.26759343 C11.0980438,8.42333828 10.9303211,8.51807367 10.7500032,8.51552355 L8.25000395,8.51552355 C8.23438755,8.51625629 8.21874537,8.51625629 8.20312897,8.51552355 Z M14.203127,8.51552355 C14.0244551,8.50720362 13.8638008,8.40417875 13.7817029,8.24527135 C13.699605,8.08636394 13.7085413,7.89572614 13.8051446,7.74519514 C13.9017478,7.59466414 14.0713352,7.50711897 14.250002,7.51554887 L16.7500012,7.51554887 C16.9303192,7.51299876 17.0980419,7.60773415 17.188945,7.76347899 C17.2798482,7.91922384 17.2798482,8.11184859 17.188945,8.26759343 C17.0980419,8.42333828 16.9303192,8.51807367 16.7500012,8.51552355 L14.250002,8.51552355 C14.2343856,8.51625629 14.2187434,8.51625629 14.203127,8.51552355 Z M20.2031251,8.51552355 C20.0244532,8.50720362 19.8637989,8.40417875 19.781701,8.24527135 C19.6996031,8.08636394 19.7085394,7.89572614 19.8051426,7.74519514 C19.9017459,7.59466414 20.0713333,7.50711897 20.2500001,7.51554887 L22.7499993,7.51554887 C22.9303172,7.51299876 23.0980399,7.60773415 23.1889431,7.76347899 C23.2798463,7.91922384 23.2798463,8.11184859 23.1889431,8.26759343 C23.0980399,8.42333828 22.9303172,8.51807367 22.7499993,8.51552355 L20.2500001,8.51552355 C20.2343837,8.51625629 20.2187415,8.51625629 20.2031251,8.51552355 Z M8.20312897,7.01554903 C8.024457,7.0072291 7.86380275,6.90420424 7.78170482,6.74529683 C7.6996069,6.58638942 7.70854327,6.39575162 7.80514648,6.24522062 C7.9017497,6.09468962 8.07133714,6.00714445 8.25000395,6.01557435 L10.7500032,6.01557435 C10.9303211,6.01302424 11.0980438,6.10775963 11.1889469,6.26350448 C11.2798501,6.41924932 11.2798501,6.61187407 11.1889469,6.76761891 C11.0980438,6.92336376 10.9303211,7.01809915 10.7500032,7.01554903 L8.25000395,7.01554903 C8.23438755,7.01628177 8.21874537,7.01628177 8.20312897,7.01554903 Z M14.203127,7.01554903 C14.0244551,7.0072291 13.8638008,6.90420424 13.7817029,6.74529683 C13.699605,6.58638942 13.7085413,6.39575162 13.8051446,6.24522062 C13.9017478,6.09468962 14.0713352,6.00714445 14.250002,6.01557435 L16.7500012,6.01557435 C16.9303192,6.01302424 17.0980419,6.10775963 17.188945,6.26350448 C17.2798482,6.41924932 17.2798482,6.61187407 17.188945,6.76761891 C17.0980419,6.92336376 16.9303192,7.01809915 16.7500012,7.01554903 L14.250002,7.01554903 C14.2343856,7.01628177 14.2187434,7.01628177 14.203127,7.01554903 Z M20.2031251,7.01554903 C20.0244532,7.0072291 19.8637989,6.90420424 19.781701,6.74529683 C19.6996031,6.58638942 19.7085394,6.39575162 19.8051426,6.24522062 C19.9017459,6.09468962 20.0713333,6.00714445 20.2500001,6.01557435 L22.7499993,6.01557435 C22.9303172,6.01302424 23.0980399,6.10775963 23.1889431,6.26350448 C23.2798463,6.41924932 23.2798463,6.61187407 23.1889431,6.76761891 C23.0980399,6.92336376 22.9303172,7.01809915 22.7499993,7.01554903 L20.2500001,7.01554903 C20.2343837,7.01628177 20.2187415,7.01628177 20.2031251,7.01554903 Z" id="Shape" fill="#FFFFFF" fill-rule="nonzero"></path>
                </g>
            </g>
        </g>
    </g>
</svg>