<?xml version="1.0" encoding="UTF-8"?>
<svg width="32px" height="32px" viewBox="0 0 32 32" version="1.1" xmlns="http://www.w3.org/2000/svg" xmlns:xlink="http://www.w3.org/1999/xlink">
    <!-- Generator: Sketch 50.2 (55047) - http://www.bohemiancoding.com/sketch -->
    <title>parking</title>
    <desc>Created with Sketch.</desc>
    <defs></defs>
    <g id="Page-1" stroke="none" stroke-width="1" fill="none" fill-rule="evenodd">
        <g id="Desktop" transform="translate(-50.000000, -195.000000)" fill="#000000" fill-rule="nonzero">
            <g id="Group-4-Copy" transform="translate(50.000000, 195.000000)">
                <g id="parking">
                    <path d="M16.3376716,8.35731343 C15.3952836,8.35731343 14.7358209,8.42041791 14.390209,8.51444776 L14.390209,14.7659701 C14.7980896,14.86 15.2694925,14.8909254 15.9920597,14.8909254 C18.5362985,14.8909254 20.1076418,13.6029254 20.1076418,11.4665672 C20.1072239,9.51868657 18.7569552,8.35731343 16.3376716,8.35731343 Z" id="Shape"></path>
                    <path d="M27.0712836,1 L4.78620896,1 C3.25373134,1 2,2.25373134 2,3.78537313 L2,26.0729552 C2,27.604597 3.25373134,28.8579104 4.78620896,28.8579104 L27.0717015,28.8579104 C28.6041791,28.8579104 29.8574925,27.604597 29.8574925,26.0729552 L29.8574925,3.78537313 C29.8570746,2.25331343 28.6037612,1 27.0712836,1 Z M22.9030448,16.3368955 C21.2698507,17.8451343 18.851403,18.5672836 16.0238209,18.5672836 C15.3952836,18.5672836 14.8298507,18.5363582 14.390209,18.4423284 L14.390209,26.0453731 L9.64525373,26.0453731 L9.64525373,4.71229851 C11.1196418,4.71229851 13.1966567,4.71229851 16.1178507,4.71229851 C19.070806,4.71229851 21.1758209,5.27856716 22.589194,6.40901493 C23.9724776,7.47844776 24.8513433,9.23659701 24.8513433,11.3094328 C24.8513433,13.3847761 24.1910448,15.1755224 22.9030448,16.3368955 Z" id="Shape"></path>
                </g>
            </g>
        </g>
    </g>
</svg>