<?xml version="1.0" encoding="UTF-8"?>
<svg width="32px" height="32px" viewBox="0 0 32 32" version="1.1" xmlns="http://www.w3.org/2000/svg" xmlns:xlink="http://www.w3.org/1999/xlink">
    <!-- Generator: Sketch 50.2 (55047) - http://www.bohemiancoding.com/sketch -->
    <title>restrooms</title>
    <desc>Created with Sketch.</desc>
    <defs></defs>
    <g id="Page-1" stroke="none" stroke-width="1" fill="none" fill-rule="evenodd">
        <g id="Desktop" transform="translate(-90.000000, -195.000000)">
            <g id="Group-4-Copy" transform="translate(50.000000, 195.000000)">
                <g id="restrooms" transform="translate(40.000000, 0.000000)">
                    <path d="M27.0712836,1 L4.78620896,1 C3.25373134,1 2,2.25373134 2,3.78537313 L2,26.0729552 C2,27.604597 3.25373134,28.8579104 4.78620896,28.8579104 L27.0717015,28.8579104 C28.6041791,28.8579104 29.8574925,27.604597 29.8574925,26.0729552 L29.8574925,3.78537313 C29.8570746,2.25331343 28.6037612,1 27.0712836,1 Z" id="Path" stroke="#000000" fill="#000000"></path>
                    <g id="Group" transform="translate(5.000000, 4.000000)" fill="#FFFFFF" fill-rule="nonzero">
                        <path d="M19.462228,4.71333313 L15.5732343,4.71333313 C14.3674005,4.71738619 13.3838478,5.68047324 13.3544439,6.88595533 C13.3544439,6.88595533 13.3544439,6.90496577 13.3544439,6.9131131 L13.3544439,11.9400177 C13.3774236,12.3078732 13.6824683,12.5944565 14.0510409,12.5944565 C14.4196134,12.5944565 14.7246581,12.3078732 14.7476379,11.9400177 L14.7476379,7.35850065 L15.222899,7.35850065 L15.222899,20.0574774 C15.224391,20.6013156 15.6648881,21.0418127 16.2087263,21.0433047 C16.7525645,21.0418127 17.1930616,20.6013156 17.1945536,20.0574774 L17.1945536,12.7248775 L17.8409087,12.7248775 L17.8409087,20.0574774 C17.8424007,20.6013156 18.2828978,21.0418127 18.826736,21.0433047 C19.3705742,21.0418127 19.8110713,20.6013156 19.8125633,20.0574774 L19.8125633,7.35850065 L20.2878245,7.35850065 L20.2878245,12.0432173 C20.2716292,12.3024678 20.4007444,12.5492647 20.6229502,12.6837924 C20.845156,12.8183201 21.1236869,12.8183201 21.3458927,12.6837924 C21.5680984,12.5492647 21.6972137,12.3024678 21.6810184,12.0432173 L21.6810184,6.93212355 C21.6765502,5.70857503 20.6857765,4.7178014 19.462228,4.71333313 Z" id="Shape"></path>
                        <circle id="Oval" cx="17.4682186" cy="1.7571082" r="1.7571082"></circle>
                        <path d="M9.57529809,10.8645697 C9.57529809,10.8645697 8.27172477,6.71486133 7.97842078,5.94358045 C7.61722234,5.00663713 6.70472101,4.71333313 5.80579858,4.71333313 L3.8015546,4.71333313 C2.90806373,4.71333313 1.9711204,5.10983668 1.6669533,5.88926489 C1.39537552,6.60623022 0.0374866477,10.8482751 0.0374866477,10.8482751 C-0.0260516996,11.0434453 -0.00829230898,11.2559824 0.086755246,11.4379014 C0.181802801,11.6198204 0.346124575,11.7557827 0.542621308,11.8150919 C0.9436776,11.9371196 1.36807948,11.7127929 1.49314352,11.3126731 L2.82387462,6.9864391 L3.14705217,6.9864391 L0.838641083,14.5743221 L2.92978995,14.5743221 L2.92978995,20.1525296 C2.93128007,20.5898766 3.28545004,20.9440466 3.72279705,20.9455367 C4.16014406,20.9440466 4.51431403,20.5898766 4.51580415,20.1525296 L4.51580415,14.5743221 L5.0589597,14.5743221 L5.0589597,20.1525296 C5.06044982,20.5898766 5.41461979,20.9440466 5.8519668,20.9455367 C6.28931382,20.9440466 6.64348378,20.5898766 6.6449739,20.1525296 L6.6449739,14.5743221 L8.73612277,14.5743221 L6.45758524,6.9864391 L6.78891012,6.9864391 L8.11964122,11.3126731 C8.24470526,11.7127929 8.66910714,11.9371196 9.07016343,11.8150919 C9.47137491,11.6911848 9.69710503,11.2664238 9.57529809,10.8645697 Z" id="Shape"></path>
                        <circle id="Oval" cx="4.89933029" cy="1.7571082" r="1.7571082"></circle>
                        <rect id="Rectangle-path" x="10.9977773" y="0" width="1.34702576" height="20.821868"></rect>
                    </g>
                </g>
            </g>
        </g>
    </g>
</svg>