<?xml version="1.0" encoding="UTF-8"?>
<svg width="32px" height="32px" viewBox="0 0 32 32" version="1.1" xmlns="http://www.w3.org/2000/svg" xmlns:xlink="http://www.w3.org/1999/xlink">
    <!-- Generator: Sketch 50.2 (55047) - http://www.bohemiancoding.com/sketch -->
    <title>showers</title>
    <desc>Created with Sketch.</desc>
    <defs></defs>
    <g id="Page-1" stroke="none" stroke-width="1" fill="none" fill-rule="evenodd">
        <g id="Desktop" transform="translate(-251.000000, -195.000000)">
            <g id="Group-4-Copy" transform="translate(50.000000, 195.000000)">
                <g id="showers" transform="translate(201.000000, 0.000000)">
                    <path d="M27.0712836,1 L4.78620896,1 C3.25373134,1 2,2.25373134 2,3.78537313 L2,26.0729552 C2,27.604597 3.25373134,28.8579104 4.78620896,28.8579104 L27.0717015,28.8579104 C28.6041791,28.8579104 29.8574925,27.604597 29.8574925,26.0729552 L29.8574925,3.78537313 C29.8570746,2.25331343 28.6037612,1 27.0712836,1 Z" id="Path" stroke="#000000" fill="#000000"></path>
                    <g id="Group-3" transform="translate(7.000000, 4.000000)" fill="#FFFFFF" fill-rule="nonzero">
                        <path d="M7.31041667,9.23986005 L15.1020833,4.79402671 C15.2625,4.70236005 15.3083333,4.49611005 15.19375,4.33569338 C14.3458333,3.05236005 13.0625,2.57111005 11.6875,2.70861005 L11.4354167,2.27319338 C11.0916667,1.67736005 10.3354167,1.47111005 9.73958333,1.81486005 L9.57916667,1.90652671 C8.525,0.669026712 6.92083333,-0.0643066215 5.15625,0.00444337854 C2.24583333,0.187776712 0,2.70861005 0,5.66486005 L0,21.0877767 C0,21.47736 0.320833333,21.82111 0.733333333,21.82111 L1.46666667,21.82111 C1.85625,21.82111 2.2,21.5002767 2.2,21.0877767 L2.2,5.61902671 C2.2,3.87736005 3.50625,2.34194338 5.24791667,2.22736005 C6.16458333,2.15861005 7.0125,2.47944338 7.65416667,3.05236005 L7.49375,3.14402671 C6.89791667,3.48777671 6.69166667,4.24402671 7.03541667,4.83986005 L7.2875,5.27527671 C6.4625,6.39819338 6.23333333,7.72736005 6.89791667,9.12527671 C6.94375,9.26277671 7.15,9.33152671 7.31041667,9.23986005 Z" id="Shape"></path>
                        <path d="M16.7291667,6.03152671 L16.43125,5.50444338 C16.3166667,5.29819338 16.0645833,5.22944338 15.8583333,5.34402671 L7.35625,10.1565267 C7.15,10.27111 7.08125,10.5231934 7.19583333,10.7294434 L7.49375,11.2565267 C7.60833333,11.4627767 7.86041667,11.5315267 8.06666667,11.4169434 L16.56875,6.58152671 C16.775,6.46694338 16.84375,6.21486005 16.7291667,6.03152671 Z" id="Shape"></path>
                        <path d="M14.0708333,10.5002767 C13.8645833,10.13361 13.3833333,9.99611005 13.0166667,10.20236 C12.65,10.40861 12.5125,10.88986 12.71875,11.2565267 L13.54375,12.7002767 C13.75,13.0669434 14.23125,13.2044434 14.5979167,12.9981934 C14.9645833,12.7919434 15.1020833,12.3106934 14.8958333,11.9440267 L14.0708333,10.5002767 Z" id="Shape"></path>
                        <path d="M16.4541667,14.6940267 C16.2479167,14.32736 15.7666667,14.18986 15.4,14.39611 C15.0333333,14.60236 14.8958333,15.08361 15.1020833,15.4502767 L15.9270833,16.8940267 C16.1333333,17.2606934 16.6145833,17.3981934 16.98125,17.1919434 C17.3479167,16.9856934 17.4854167,16.5044434 17.2791667,16.1377767 L16.4541667,14.6940267 Z" id="Shape"></path>
                        <path d="M11.1833333,12.1502767 C10.9770833,11.78361 10.4958333,11.64611 10.1291667,11.85236 C9.7625,12.05861 9.625,12.53986 9.83125,12.9065267 L10.65625,14.3502767 C10.8625,14.7169434 11.34375,14.8544434 11.7104167,14.6481934 C12.0770833,14.4419434 12.2145833,13.9606934 12.0083333,13.5940267 L11.1833333,12.1502767 Z" id="Shape"></path>
                        <path d="M13.5666667,16.3440267 C13.3604167,15.97736 12.8791667,15.83986 12.5125,16.04611 C12.1458333,16.25236 12.0083333,16.73361 12.2145833,17.1002767 L13.0395833,18.5440267 C13.2458333,18.9106934 13.7270833,19.0481934 14.09375,18.8419434 C14.4604167,18.6356934 14.5979167,18.1544434 14.3916667,17.7877767 L13.5666667,16.3440267 Z" id="Shape"></path>
                        <path d="M16.9583333,8.85027671 C16.7520833,8.48361005 16.2708333,8.34611005 15.9041667,8.55236005 C15.5375,8.75861005 15.4,9.23986005 15.60625,9.60652671 L16.43125,11.0502767 C16.6375,11.4169434 17.11875,11.5544434 17.4854167,11.3481934 C17.8520833,11.1419434 17.9895833,10.6606934 17.7833333,10.2940267 L16.9583333,8.85027671 Z" id="Shape"></path>
                        <path d="M20.1666667,14.4877767 L19.3416667,13.0440267 C19.1354167,12.67736 18.6541667,12.53986 18.2875,12.74611 C17.9208333,12.95236 17.7833333,13.43361 17.9895833,13.8002767 L18.8145833,15.2440267 C19.0208333,15.6106934 19.5020833,15.7481934 19.86875,15.5419434 C20.2583333,15.3356934 20.3729167,14.8544434 20.1666667,14.4877767 Z" id="Shape"></path>
                    </g>
                </g>
            </g>
        </g>
    </g>
</svg>