<?xml version="1.0" encoding="UTF-8"?>
<svg width="32px" height="32px" viewBox="0 0 32 32" version="1.1" xmlns="http://www.w3.org/2000/svg" xmlns:xlink="http://www.w3.org/1999/xlink">
    <!-- Generator: Sketch 50.2 (55047) - http://www.bohemiancoding.com/sketch -->
    <title>toilet</title>
    <desc>Created with Sketch.</desc>
    <defs></defs>
    <g id="Page-1" stroke="none" stroke-width="1" fill="none" fill-rule="evenodd">
        <g id="Desktop" transform="translate(-291.000000, -195.000000)">
            <g id="Group-4-Copy" transform="translate(50.000000, 195.000000)">
                <g id="toilet" transform="translate(241.000000, 0.000000)">
                    <path d="M27.0712836,1 L4.78620896,1 C3.25373134,1 2,2.25373134 2,3.78537313 L2,26.0729552 C2,27.604597 3.25373134,28.8579104 4.78620896,28.8579104 L27.0717015,28.8579104 C28.6041791,28.8579104 29.8574925,27.604597 29.8574925,26.0729552 L29.8574925,3.78537313 C29.8570746,2.25331343 28.6037612,1 27.0712836,1 Z" id="Path" stroke="#000000" fill="#000000"></path>
                    <path d="M8.85383273,4 L8.85383273,4.57867211 L7,4.57867211 L7,14.6005645 L13.017225,14.6005645 L13.017225,4.57867211 L11.1633923,4.57867211 L11.1633923,4 L8.85383273,4 Z M7,15.1894902 L7,26 L7.45581133,26 L13.6368733,26 L15.762148,26 L15.762148,25.3393925 C15.762148,24.1673672 14.8115729,23.2141516 13.6368733,23.2141516 L13.6368733,21.9083073 C13.6368733,21.1610411 14.2723222,20.5885837 15.019601,20.6331551 C15.2634552,20.6462646 15.5079009,20.6536326 15.7569938,20.6536326 C20.5892952,20.6536326 24.5140721,18.2100081 24.5140721,15.1894902 L13.6368733,15.1894902 L7,15.1894902 Z" id="Shape" fill="#FFFFFF" fill-rule="nonzero"></path>
                </g>
            </g>
        </g>
    </g>
</svg>